<svg viewBox="0 0 24 24" aria-hidden="true" focusable="false" fill="currentColor" xmlns="http://www.w3.org/2000/svg" class="StyledIconBase-ea9ulj-0 iuNRof" style="width: 18px; height: 18px; color: rgba(55, 53, 47, 0.3);"><path fill="none" d="M0 0h24v24H0V0z"></path><path d="M11 18c0 1.1-.9 2-2 2s-2-.9-2-2 .9-2 2-2 2 .9 2 2zm-2-8c-1.1 0-2 .9-2 2s.9 2 2 2 2-.9 2-2-.9-2-2-2zm0-6c-1.1 0-2 .9-2 2s.9 2 2 2 2-.9 2-2-.9-2-2-2zm6 4c1.1 0 2-.9 2-2s-.9-2-2-2-2 .9-2 2 .9 2 2 2zm0 2c-1.1 0-2 .9-2 2s.9 2 2 2 2-.9 2-2-.9-2-2-2zm0 6c-1.1 0-2 .9-2 2s.9 2 2 2 2-.9 2-2-.9-2-2-2z"></path></svg>