<svg width="22" height="22" viewBox="0 0 22 22" fill="currentColor" xmlns="http://www.w3.org/2000/svg">
<path d="M17.875 3.4375H4.125C2.98591 3.4375 2.0625 4.36091 2.0625 5.5V16.5C2.0625 17.6391 2.98591 18.5625 4.125 18.5625H17.875C19.0141 18.5625 19.9375 17.6391 19.9375 16.5V5.5C19.9375 4.36091 19.0141 3.4375 17.875 3.4375Z" stroke="#fff" stroke-width="1.5" stroke-linejoin="round"/>
<path d="M14.4375 8.9375C15.1969 8.9375 15.8125 8.32189 15.8125 7.5625C15.8125 6.80311 15.1969 6.1875 14.4375 6.1875C13.6781 6.1875 13.0625 6.80311 13.0625 7.5625C13.0625 8.32189 13.6781 8.9375 14.4375 8.9375Z" stroke="#fff" stroke-width="1.5" stroke-miterlimit="10"/>
<path d="M13.0625 14.4276L9.16695 10.5393C8.91907 10.2915 8.58589 10.1477 8.23552 10.1373C7.88515 10.1269 7.54404 10.2508 7.28191 10.4835L2.0625 15.1241" stroke="#fff" stroke-width="1.5" stroke-linecap="round" stroke-linejoin="round"/>
<path d="M9.625 18.5629L14.9248 13.2631C15.1671 13.0202 15.4915 12.8768 15.8343 12.8609C16.177 12.845 16.5133 12.9578 16.7771 13.1771L19.9375 15.8129" stroke="#fff" stroke-width="1.5" stroke-linecap="round" stroke-linejoin="round"/>
</svg>
