<svg class="svgIcon-use" width="21" height="21"><path d="M10.308 17.993h-5.92l.11-.894.783-.12c.56-.11.79-.224.79-.448V5.37c0-.225-.113-.336-.902-.448H4.5l-.114-.894h6.255c4.02 0 5.58 1.23 5.58 3.13 0 1.896-1.78 3.125-3.79 3.463v.11c2.69.34 4.25 1.56 4.25 3.57 0 2.35-2.01 3.69-6.37 3.69l.02.01h-.02zm-.335-12.96H8.967V10.5h1.23c1.788 0 2.79-1.23 2.79-2.683 0-1.685-1.004-2.803-3.006-2.803v.02zm-.223 6.36h-.783v5.588l1.225.23h.22c1.67 0 3.01-1.004 3.01-2.792 0-2.122-1.566-3.016-3.69-3.016h.018z" fill-rule="evenodd"></path></svg>