<svg viewBox="0 0 16 16" class="duplicate" style="width: 16px; height: 16px; display: block; fill: currentColor; flex-shrink: 0; backface-visibility: hidden;"><path d="M2.83887 12.1523H4.00098V13.1846C4.00098 14.6406 4.75977 15.3994 6.24316 15.3994H13.1611C14.6377 15.3994 15.4033 14.6406 15.4033 13.1846V6.21191C15.4033 4.75586 14.6377 3.99707 13.1611 3.99707H11.999V2.96484C11.999 1.50879 11.2334 0.75 9.75684 0.75H2.83887C1.3623 0.75 0.59668 1.50195 0.59668 2.96484V9.93066C0.59668 11.3936 1.3623 12.1523 2.83887 12.1523ZM2.9209 10.8125C2.28516 10.8125 1.93652 10.4844 1.93652 9.82129V3.08105C1.93652 2.41797 2.28516 2.08301 2.9209 2.08301H9.68164C10.3105 2.08301 10.666 2.41797 10.666 3.08105V3.99707H6.24316C4.75977 3.99707 4.00098 4.75586 4.00098 6.21191V10.8125H2.9209ZM6.31836 14.0596C5.68262 14.0596 5.34082 13.7314 5.34082 13.0684V6.32812C5.34082 5.66504 5.68262 5.33691 6.31836 5.33691H13.0791C13.708 5.33691 14.0635 5.66504 14.0635 6.32812V13.0684C14.0635 13.7314 13.708 14.0596 13.0791 14.0596H6.31836Z"></path></svg>