<?xml version="1.0" standalone="no"?>
<!DOCTYPE svg PUBLIC "-//W3C//DTD SVG 20010904//EN"
 "http://www.w3.org/TR/2001/REC-SVG-20010904/DTD/svg10.dtd">
<svg version="1.0" xmlns="http://www.w3.org/2000/svg"
 width="500.000000pt" height="500.000000pt" viewBox="0 0 500.000000 500.000000"
 preserveAspectRatio="xMidYMid meet">
<metadata>
Created by potrace 1.14, written by Peter Selinger 2001-2017
</metadata>
<g transform="translate(0.000000,500.000000) scale(0.100000,-0.100000)"
fill="#000000" stroke="none">
<path d="M2290 4303 c-14 -2 -56 -8 -95 -13 -38 -6 -90 -12 -114 -15 -38 -5
-100 -18 -136 -29 -5 -2 -23 -6 -40 -10 -200 -48 -481 -195 -695 -361 -55 -43
-248 -244 -290 -302 -105 -143 -147 -209 -176 -273 -8 -19 -31 -68 -50 -108
-105 -224 -157 -466 -157 -732 0 -106 11 -268 19 -281 2 -4 7 -29 10 -56 10
-95 64 -268 122 -394 34 -74 45 -100 54 -127 6 -20 157 -234 208 -296 92 -112
258 -276 279 -276 5 0 14 -6 18 -13 13 -22 154 -113 306 -196 58 -32 217 -102
217 -96 0 2 32 -7 71 -21 75 -26 166 -49 239 -59 24 -4 47 -8 50 -10 26 -16
362 -24 480 -12 70 8 215 32 270 46 111 28 325 104 340 120 3 4 23 14 45 24
36 17 216 121 240 140 6 4 33 24 60 44 142 105 306 279 429 456 97 140 223
432 261 602 19 85 31 260 30 425 -2 202 -9 283 -31 375 -8 33 -17 68 -19 77
-15 67 -78 225 -136 343 -99 200 -249 396 -420 550 -83 75 -78 70 -249 190
-64 45 -278 148 -392 189 -54 19 -98 33 -98 30 0 -2 -8 0 -17 5 -10 5 -35 12
-57 15 -21 4 -41 8 -45 11 -4 2 -29 6 -57 10 -27 3 -78 10 -114 16 -61 11
-305 18 -360 12z m1464 -1162 c37 -83 -19 -171 -109 -171 -93 0 -154 107 -105
185 50 81 176 73 214 -14z m-2441 34 c12 -8 33 -30 47 -48 14 -19 56 -68 93
-110 38 -41 85 -97 105 -124 20 -26 44 -55 53 -63 8 -8 52 -61 97 -117 l83
-102 29 31 c17 17 30 34 30 37 0 3 12 19 28 36 15 16 47 54 72 85 49 61 120
144 190 225 25 28 63 72 84 99 62 75 144 97 223 59 75 -35 106 -151 60 -224
-22 -35 -205 -269 -282 -360 -22 -26 -56 -69 -75 -94 -33 -44 -76 -95 -128
-154 -51 -56 -55 -79 -58 -336 -1 -141 -6 -251 -13 -267 -12 -31 -56 -80 -86
-95 -43 -22 -87 -23 -129 -4 -54 24 -94 65 -105 110 -5 20 -9 140 -9 268 l-1
232 -36 56 c-19 31 -61 86 -92 123 -69 81 -48 55 -196 241 -67 84 -132 168
-144 185 -12 17 -27 37 -33 44 -7 7 -23 32 -36 55 -52 92 -12 196 90 233 36
12 106 2 139 -21z m1947 -210 c122 -15 224 -53 329 -125 71 -49 191 -178 191
-206 0 -4 8 -17 18 -28 21 -24 52 -96 59 -140 3 -16 8 -39 12 -50 4 -12 9 -47
10 -78 2 -57 2 -58 -21 -49 -20 7 -50 -1 -68 -19 -6 -6 -30 -12 -47 -13 -7 0
-13 -4 -13 -9 0 -5 -5 -6 -11 -2 -23 14 -77 13 -89 -1 -12 -15 -16 -73 -6
-110 2 -11 5 -26 5 -33 1 -7 6 -10 11 -7 6 3 10 -1 10 -10 0 -9 4 -13 10 -10
6 3 7 -1 4 -9 -4 -11 0 -17 12 -18 11 0 25 -2 32 -2 7 -1 16 -6 20 -11 4 -6
14 -12 22 -13 47 -11 81 -19 88 -21 1 -1 -10 -25 -24 -53 -79 -157 -192 -265
-357 -344 -83 -39 -107 -44 -262 -49 -163 -6 -268 20 -390 98 -27 17 -55 36
-61 42 -6 5 -34 32 -63 58 -82 76 -163 218 -198 347 -10 35 -15 97 -15 170 0
95 4 129 25 192 42 131 144 282 243 359 149 116 336 167 524 144z"/>
<path d="M3055 2641 c-27 -10 -65 -26 -84 -36 -56 -28 -131 -114 -164 -185
-26 -56 -30 -77 -31 -155 -1 -79 3 -98 29 -155 35 -79 62 -113 127 -162 112
-85 230 -108 356 -69 67 20 150 74 194 126 59 69 106 194 102 275 -6 136 -121
297 -249 349 -79 33 -208 38 -280 12z"/>
</g>
</svg>
