<svg width="20" height="20" viewBox="0 0 20 20" fill="none" xmlns="http://www.w3.org/2000/svg">
<path d="M5.83789 10.0004C5.83789 9.65516 6.11771 9.37541 6.46289 9.37541H9.3734V6.46484C9.3734 6.11966 9.65323 5.83984 9.9984 5.83984C10.3436 5.83984 10.6234 6.11966 10.6234 6.46484V9.37541H13.534C13.8791 9.37541 14.159 9.65516 14.159 10.0004C14.159 10.3456 13.8791 10.6254 13.534 10.6254H10.6234V13.5359C10.6234 13.8811 10.3436 14.1609 9.9984 14.1609C9.65323 14.1609 9.3734 13.8811 9.3734 13.5359V10.6254H6.46289C6.11771 10.6254 5.83789 10.3456 5.83789 10.0004Z" fill="gray"/>
<path d="M10 3V17" stroke="gray" stroke-width="1.5" stroke-linecap="round" stroke-linejoin="round"/>
<path d="M17 10L3 10" stroke="gray" stroke-width="1.5" stroke-linecap="round" stroke-linejoin="round"/>
</svg>
