<svg width="22" height="22" viewBox="0 0 22 22" fill="none" xmlns="http://www.w3.org/2000/svg">
<path d="M5.375 5.375L6.15625 17.875C6.19336 18.5973 6.71875 19.125 7.40625 19.125H14.5938C15.284 19.125 15.7996 18.5973 15.8438 17.875L16.625 5.375" stroke="currentColor" stroke-width="1.4" stroke-linecap="round" stroke-linejoin="round"/>
<path d="M4.125 5.375H17.875" stroke="currentColor" stroke-width="1.4" stroke-miterlimit="10" stroke-linecap="round"/>
<path d="M8.5 5.375V3.8125C8.49964 3.68929 8.52365 3.56722 8.57063 3.45331C8.61762 3.33941 8.68666 3.23591 8.77379 3.14879C8.86091 3.06166 8.96441 2.99262 9.07831 2.94563C9.19222 2.89865 9.31429 2.87464 9.43751 2.875H12.5625C12.6857 2.87464 12.8078 2.89865 12.9217 2.94563C13.0356 2.99262 13.1391 3.06166 13.2262 3.14879C13.3134 3.23591 13.3824 3.33941 13.4294 3.45331C13.4764 3.56722 13.5004 3.68929 13.5 3.8125V5.375" stroke="currentColor" stroke-width="1.4" stroke-linecap="round" stroke-linejoin="round"/>
<path d="M11 7.875V16.625" stroke="currentColor" stroke-width="1.4" stroke-linecap="round" stroke-linejoin="round"/>
<path d="M8.1875 7.875L8.5 16.625" stroke="currentColor" stroke-width="1.4" stroke-linecap="round" stroke-linejoin="round"/>
<path d="M13.8125 7.875L13.5 16.625" stroke="currentColor" stroke-width="1.4" stroke-linecap="round" stroke-linejoin="round"/>
</svg>
