<svg width="22" height="22" viewBox="0 0 22 22" fill="none" xmlns="http://www.w3.org/2000/svg">
<path d="M14.5217 10.7827C15.0522 10.4597 15.4998 10.0172 15.829 9.49058C16.1581 8.96394 16.3597 8.36768 16.4176 7.74935C16.4276 7.19022 16.3274 6.63459 16.1227 6.1142C15.918 5.59381 15.6127 5.11884 15.2244 4.71644C14.8361 4.31403 14.3723 3.99207 13.8595 3.76894C13.3467 3.54581 12.795 3.42589 12.2359 3.41602H5.20508V18.5827H12.7884C13.3205 18.577 13.8462 18.4666 14.3357 18.2577C14.8251 18.0489 15.2685 17.7457 15.6407 17.3654C16.013 16.9851 16.3066 16.5353 16.505 16.0415C16.7033 15.5478 16.8025 15.0198 16.7967 14.4877V14.3577C16.7971 13.6071 16.5832 12.8719 16.1802 12.2386C15.7773 11.6054 15.2019 11.1003 14.5217 10.7827ZM7.37174 5.58268H11.9217C12.3834 5.56839 12.8384 5.69566 13.2257 5.94739C13.613 6.19912 13.914 6.56329 14.0884 6.99102C14.2649 7.56278 14.2078 8.18115 13.9297 8.71097C13.6516 9.24079 13.1751 9.63898 12.6042 9.81852C12.3826 9.88348 12.1527 9.91631 11.9217 9.91602H7.37174V5.58268ZM12.3551 16.416H7.37174V12.0827H12.3551C12.8168 12.0684 13.2718 12.1957 13.6591 12.4474C14.0463 12.6991 14.3474 13.0633 14.5217 13.491C14.6982 14.0628 14.6411 14.6812 14.363 15.211C14.0849 15.7408 13.6084 16.139 13.0376 16.3185C12.8159 16.3835 12.5861 16.4163 12.3551 16.416Z" fill="white"/>
</svg>
