<svg width="22" height="22" viewBox="0 0 22 22" fill="none" xmlns="http://www.w3.org/2000/svg">
<rect x="4.40039" y="16" width="13" height="1.3" rx="0.65" fill="#B9B9B9"/>
<rect x="4.40039" y="13" width="13" height="1.3" rx="0.65" fill="#B9B9B9"/>
<rect x="4.40039" y="19" width="7" height="1.3" rx="0.65" fill="#B9B9B9"/>
<path d="M4.67871 10.5H5.88574V7.01172H9.87402V10.5H11.085V2.5H9.87402V5.97656H5.88574V2.5H4.67871V10.5ZM12.7334 10.5H17.999V9.46484H14.3975V9.40625L15.9873 7.74219C17.4521 6.26172 17.8701 5.55469 17.8701 4.66016C17.8701 3.375 16.8232 2.39062 15.3154 2.39062C13.8193 2.39062 12.7256 3.35937 12.7256 4.82031H13.8779C13.874 3.96094 14.4287 3.39844 15.292 3.39844C16.1045 3.39844 16.7217 3.89844 16.7217 4.69531C16.7217 5.40234 16.2998 5.91016 15.4404 6.82031L12.7334 9.625V10.5Z" fill="white"/>
</svg>
