<svg width="22" height="22" viewBox="0 0 22 22" fill="none" xmlns="http://www.w3.org/2000/svg">
<path d="M1.25 11.2204H20.75V12.8454H16.0204C16.277 13.3841 16.4065 13.9745 16.3989 14.5711C16.4141 15.1371 16.2926 15.6985 16.0448 16.2076C15.797 16.7167 15.43 17.1586 14.9752 17.4958C13.8794 18.2667 12.5576 18.6497 11.2194 18.5839C10.2416 18.5905 9.27338 18.3916 8.37742 18C7.5592 17.6606 6.84994 17.1029 6.32706 16.3878C5.84563 15.7051 5.59159 14.8881 5.60106 14.0527V13.9299H5.91222V13.9287H6.28217V13.9299H7.77167V14.0527C7.7547 14.4334 7.82997 14.8125 7.99108 15.1578C8.15219 15.5031 8.39436 15.8044 8.69697 16.036C9.43084 16.5585 10.3197 16.8178 11.2194 16.7718C12.0136 16.8237 12.8032 16.6161 13.4691 16.1801C13.7159 15.9976 13.9143 15.7573 14.0467 15.4803C14.1792 15.2033 14.2417 14.8981 14.2288 14.5913C14.2461 14.295 14.1914 13.9989 14.0693 13.7283C13.9472 13.4577 13.7615 13.2206 13.5279 13.0374C13.4322 12.9681 13.3328 12.9039 13.2301 12.8454H1.25V11.2204ZM15.7068 5.64872C15.2501 4.93915 14.6043 4.37123 13.8422 4.00897C12.9926 3.60425 12.0609 3.40172 11.1199 3.41725C9.8079 3.36094 8.5179 3.7683 7.47612 4.5679C7.02888 4.91331 6.66812 5.35803 6.42235 5.86689C6.17659 6.37575 6.05256 6.9348 6.06007 7.49985C6.05628 8.03534 6.17547 8.56454 6.40847 9.0467H9.22154C9.13121 8.98858 9.02072 8.93212 8.94779 8.87267C8.72737 8.71008 8.54844 8.49775 8.42554 8.25297C8.30265 8.00818 8.23927 7.73785 8.24056 7.46395C8.22421 7.15129 8.28346 6.83929 8.41328 6.55439C8.5431 6.26948 8.73967 6.02006 8.98634 5.82725C9.61044 5.39442 10.3618 5.18367 11.1199 5.22878C11.9443 5.17637 12.7583 5.43485 13.4014 5.95321C13.6704 6.20648 13.881 6.51524 14.0187 6.85806C14.1564 7.20088 14.2178 7.56956 14.1988 7.9385V8.06136H16.3689V7.9385C16.3725 7.12752 16.1427 6.33262 15.7068 5.64872Z" fill="white"/>
</svg>
