<svg width="22" height="22" viewBox="0 0 22 22" fill="none" xmlns="http://www.w3.org/2000/svg">
<path d="M18.5827 19.666V20.7493H3.41602V19.666H18.5827ZM15.3327 12.3156C15.297 13.0306 15.0848 13.7256 14.7149 14.3385C14.345 14.9514 13.8291 15.4632 13.2132 15.828C12.5972 16.1929 11.9005 16.3994 11.1853 16.4292C10.47 16.4591 9.75851 16.3112 9.11435 15.9989C8.37187 15.6777 7.74221 15.1422 7.30601 14.4608C6.86982 13.7795 6.64697 12.9835 6.66602 12.1748V3.42143H4.49935V12.3156C4.536 13.3355 4.81227 14.3324 5.3058 15.2256C5.79933 16.1188 6.49625 16.8833 7.34014 17.4572C8.18403 18.031 9.15119 18.3981 10.1633 18.5287C11.1754 18.6593 12.2041 18.5498 13.166 18.2089C14.4456 17.7824 15.5557 16.9589 16.335 15.8581C17.1143 14.7573 17.5222 13.4366 17.4993 12.0881V3.42143H15.3327V12.3156Z" fill="white"/>
</svg>
