<svg viewBox="0 0 16 16" class="turn_svg__loop" style="width: 16px; height: 16px; display: block; fill: currentcolor; flex-shrink: 0; backface-visibility: hidden;"><path d="M5.804 3.123c.006.38.254.622.673.622h4.887c.59 0 .914.305.914.92v6.628l-.901-.978-.514-.514c-.267-.254-.629-.273-.895-.013-.254.26-.248.635.012.895l2.165 2.158c.476.47 1.022.47 1.498 0l2.165-2.158c.26-.26.266-.635.012-.895-.266-.26-.628-.241-.895.013l-.514.514-.895.971V4.564c0-1.358-.71-2.063-2.082-2.063H6.477c-.42 0-.68.241-.673.622ZM.186 7.06c.26.266.622.247.889-.013l.52-.508.889-.971v6.722c0 1.359.71 2.063 2.082 2.063h4.957c.42 0 .68-.241.673-.622-.006-.387-.254-.622-.673-.622h-4.88c-.591 0-.915-.311-.915-.927V5.554l.895.984.52.508c.26.26.629.28.89.013.26-.26.253-.629-.013-.89L3.855 4.013c-.476-.476-1.016-.476-1.492 0L.2 6.17c-.267.26-.273.628-.013.889Z"></path></svg>