<svg width="22" height="22" viewBox="0 0 22 22" fill="none" xmlns="http://www.w3.org/2000/svg">
<path d="M9.45767 4.58398L10.3177 5.79637C9.2197 6.56916 8.26157 7.52354 7.48447 8.61846C6.90555 9.4472 6.58703 10.4298 6.56964 11.4406V11.7498C6.79018 11.7206 6.99206 11.695 7.17525 11.6728C7.34713 11.6512 7.52013 11.6399 7.69335 11.639C8.0524 11.6284 8.4098 11.6916 8.74353 11.8244C9.07727 11.9573 9.38027 12.157 9.63386 12.4114C9.88677 12.6615 10.0858 12.9607 10.2186 13.2907C10.3515 13.6206 10.4154 13.9742 10.4063 14.3298C10.4266 14.74 10.3649 15.1501 10.2248 15.5362C10.0848 15.9222 9.86922 16.2765 9.59069 16.5784C9.30822 16.8602 8.97027 17.0804 8.59826 17.2248C8.22626 17.3692 7.8283 17.4348 7.42963 17.4173C6.95069 17.4276 6.47581 17.3274 6.04178 17.1247C5.60775 16.9219 5.22621 16.622 4.9267 16.2481C4.24853 15.3996 3.89999 14.3345 3.94533 13.2492C3.94277 11.5819 4.42567 9.94997 5.33508 8.55254C6.41056 6.95084 7.8162 5.59772 9.45767 4.58398ZM17.1507 4.58398L18.0096 5.79637C16.9116 6.56917 15.9535 7.52355 15.1764 8.61846C14.5974 9.4472 14.2789 10.4298 14.2615 11.4406V11.7498C14.4669 11.7206 14.6618 11.695 14.8461 11.6728C15.0254 11.6507 15.2058 11.6394 15.3864 11.639C15.7431 11.6249 16.0989 11.6853 16.4309 11.8163C16.763 11.9473 17.0642 12.146 17.3153 12.3998C17.561 12.6559 17.753 12.9586 17.8798 13.2901C18.0067 13.6215 18.0659 13.9751 18.0539 14.3298C18.0956 15.1545 17.8105 15.9625 17.2604 16.5784C16.9832 16.8611 16.6493 17.0821 16.2807 17.2266C15.9121 17.3712 15.517 17.4362 15.1215 17.4173C14.6397 17.4259 14.1621 17.3251 13.7248 17.1226C13.2874 16.9201 12.9016 16.6211 12.5964 16.2481C11.9054 15.4054 11.5482 14.3381 11.5929 13.2492C11.5985 11.5989 12.0851 9.98601 12.9931 8.60797C14.0834 6.99156 15.4996 5.62092 17.1507 4.58398Z" fill="white"/>
</svg>
