<svg width="22" height="22" viewBox="0 0 22 22" fill="none" xmlns="http://www.w3.org/2000/svg">
<rect x="4.40039" y="16" width="13" height="1.3" rx="0.65" fill="#B9B9B9"/>
<rect x="4.40039" y="13" width="13" height="1.3" rx="0.65" fill="#B9B9B9"/>
<rect x="4.40039" y="19" width="7" height="1.3" rx="0.65" fill="#B9B9B9"/>
<path d="M4.59881 9.5H5.69611V6.32884H9.32182V9.5H10.4227V2.22727H9.32182V5.38778H5.69611V2.22727H4.59881V9.5ZM14.4532 9.59943C15.9376 9.59943 17.0278 8.71165 17.0242 7.50426C17.0278 6.58452 16.4703 5.92401 15.5044 5.77486V5.71804C16.2643 5.52273 16.7579 4.92614 16.7544 4.10938C16.7579 3.04048 15.8808 2.12784 14.4816 2.12784C13.1464 2.12784 12.074 2.93395 12.0384 4.11648H13.1002C13.1251 3.44886 13.7536 3.04403 14.4674 3.04403C15.2096 3.04403 15.6961 3.49503 15.6926 4.16619C15.6961 4.86932 15.1315 5.33097 14.3254 5.33097H13.711V6.22585H14.3254C15.3339 6.22585 15.9163 6.73722 15.9163 7.46875C15.9163 8.17543 15.3019 8.65483 14.4461 8.65483C13.6578 8.65483 13.0434 8.25 13.0008 7.60369H11.8857C11.9319 8.78977 12.983 9.59943 14.4532 9.59943Z" fill="white"/>
</svg>
