<svg width="22" height="22" viewBox="0 0 22 22" fill="none" xmlns="http://www.w3.org/2000/svg">
<path d="M10.7408 7.74935H12.9074L10.5241 18.5827H8.35742L10.7408 7.74935ZM12.5608 3.41602C12.3465 3.41602 12.137 3.47955 11.9589 3.59859C11.7807 3.71763 11.6419 3.88682 11.5599 4.08478C11.4779 4.28273 11.4564 4.50055 11.4982 4.7107C11.54 4.92084 11.6432 5.11387 11.7947 5.26538C11.9462 5.41689 12.1393 5.52007 12.3494 5.56187C12.5596 5.60367 12.7774 5.58221 12.9753 5.50022C13.1733 5.41822 13.3425 5.27937 13.4615 5.10122C13.5806 4.92306 13.6441 4.71361 13.6441 4.49935C13.6441 4.21203 13.53 3.93648 13.3268 3.73332C13.1236 3.53015 12.8481 3.41602 12.5608 3.41602Z" fill="white"/>
</svg>
