<svg width="49" height="42" viewBox="0 0 49 42" fill="none" xmlns="http://www.w3.org/2000/svg">
<mask id="path-1-inside-1_8066_2187" fill="white">
<path fill-rule="evenodd" clip-rule="evenodd" d="M16.0471 8.77574C16.0471 6.09582 18.2196 3.9233 20.8995 3.9233H27.9962C30.6762 3.9233 32.8488 6.09582 32.8488 8.77574C32.8488 10.4833 34.1595 11.9049 35.8616 12.0432L41.5785 12.5075C42.7011 12.5986 43.6242 13.4287 43.8336 14.5352C44.9842 20.612 45.0701 26.8428 44.0872 32.9492L43.8378 34.4984C43.6024 35.9615 42.3983 37.0746 40.9211 37.1946L35.9408 37.5989C28.2913 38.2202 20.6044 38.2202 12.9551 37.5989L7.9748 37.1946C6.49772 37.0746 5.29354 35.9615 5.05803 34.4984L4.80867 32.9492C3.82582 26.8428 3.91162 20.612 5.06223 14.5352C5.27174 13.4287 6.1949 12.5986 7.31739 12.5075L13.0343 12.0432C14.7363 11.9049 16.0471 10.4833 16.0471 8.77574ZM20.8995 0.0771484C16.2717 0.0771484 12.488 3.6911 12.2165 8.25074L7.00605 8.67392C4.15754 8.90525 1.8149 11.0117 1.28323 13.8197C0.0496914 20.3343 -0.0422829 27.0141 1.01138 33.5602L1.26074 35.1095C1.77769 38.3213 4.42108 40.7648 7.66346 41.0282L12.6438 41.4325C20.5003 42.0705 28.3957 42.0705 36.2521 41.4325L41.2324 41.0282C44.4747 40.7648 47.1183 38.3213 47.6352 35.1095L47.8844 33.5602C48.9383 27.0141 48.8462 20.3343 47.6126 13.8197C47.0811 11.0117 44.7383 8.90525 41.8898 8.67392L36.6793 8.25074C36.408 3.6911 32.6242 0.0771484 27.9962 0.0771484H20.8995ZM24.4514 12.8979C19.1409 12.8979 14.8359 17.2028 14.8359 22.5133C14.8359 27.8239 19.1409 32.1287 24.4514 32.1287C29.7617 32.1287 34.0668 27.8239 34.0668 22.5133C34.0668 17.2028 29.7617 12.8979 24.4514 12.8979ZM18.6821 22.5133C18.6821 19.3272 21.265 16.7441 24.4514 16.7441C27.6376 16.7441 30.2206 19.3272 30.2206 22.5133C30.2206 25.6995 27.6376 28.2826 24.4514 28.2826C21.265 28.2826 18.6821 25.6995 18.6821 22.5133Z"/>
</mask>
<path fill-rule="evenodd" clip-rule="evenodd" d="M16.0471 8.77574C16.0471 6.09582 18.2196 3.9233 20.8995 3.9233H27.9962C30.6762 3.9233 32.8488 6.09582 32.8488 8.77574C32.8488 10.4833 34.1595 11.9049 35.8616 12.0432L41.5785 12.5075C42.7011 12.5986 43.6242 13.4287 43.8336 14.5352C44.9842 20.612 45.0701 26.8428 44.0872 32.9492L43.8378 34.4984C43.6024 35.9615 42.3983 37.0746 40.9211 37.1946L35.9408 37.5989C28.2913 38.2202 20.6044 38.2202 12.9551 37.5989L7.9748 37.1946C6.49772 37.0746 5.29354 35.9615 5.05803 34.4984L4.80867 32.9492C3.82582 26.8428 3.91162 20.612 5.06223 14.5352C5.27174 13.4287 6.1949 12.5986 7.31739 12.5075L13.0343 12.0432C14.7363 11.9049 16.0471 10.4833 16.0471 8.77574ZM20.8995 0.0771484C16.2717 0.0771484 12.488 3.6911 12.2165 8.25074L7.00605 8.67392C4.15754 8.90525 1.8149 11.0117 1.28323 13.8197C0.0496914 20.3343 -0.0422829 27.0141 1.01138 33.5602L1.26074 35.1095C1.77769 38.3213 4.42108 40.7648 7.66346 41.0282L12.6438 41.4325C20.5003 42.0705 28.3957 42.0705 36.2521 41.4325L41.2324 41.0282C44.4747 40.7648 47.1183 38.3213 47.6352 35.1095L47.8844 33.5602C48.9383 27.0141 48.8462 20.3343 47.6126 13.8197C47.0811 11.0117 44.7383 8.90525 41.8898 8.67392L36.6793 8.25074C36.408 3.6911 32.6242 0.0771484 27.9962 0.0771484H20.8995ZM24.4514 12.8979C19.1409 12.8979 14.8359 17.2028 14.8359 22.5133C14.8359 27.8239 19.1409 32.1287 24.4514 32.1287C29.7617 32.1287 34.0668 27.8239 34.0668 22.5133C34.0668 17.2028 29.7617 12.8979 24.4514 12.8979ZM18.6821 22.5133C18.6821 19.3272 21.265 16.7441 24.4514 16.7441C27.6376 16.7441 30.2206 19.3272 30.2206 22.5133C30.2206 25.6995 27.6376 28.2826 24.4514 28.2826C21.265 28.2826 18.6821 25.6995 18.6821 22.5133Z" fill="#9F9F9F"/>
<path d="M35.8616 12.0432L35.9021 11.5448L35.9021 11.5448L35.8616 12.0432ZM41.5785 12.5075L41.538 13.0058L41.5381 13.0058L41.5785 12.5075ZM43.8336 14.5352L43.3424 14.6282V14.6282L43.8336 14.5352ZM44.0872 32.9492L44.5809 33.0287L44.5809 33.0287L44.0872 32.9492ZM43.8378 34.4984L43.3441 34.4189L43.3441 34.419L43.8378 34.4984ZM40.9211 37.1946L40.9615 37.6929H40.9616L40.9211 37.1946ZM35.9408 37.5989L35.9004 37.1006H35.9003L35.9408 37.5989ZM12.9551 37.5989L12.9956 37.1006H12.9956L12.9551 37.5989ZM7.9748 37.1946L7.93431 37.6929H7.93433L7.9748 37.1946ZM5.05803 34.4984L4.56438 34.5779L4.56438 34.5779L5.05803 34.4984ZM4.80867 32.9492L4.31502 33.0287L4.31502 33.0287L4.80867 32.9492ZM5.06223 14.5352L5.5535 14.6282L5.5535 14.6282L5.06223 14.5352ZM7.31739 12.5075L7.35786 13.0058L7.35786 13.0058L7.31739 12.5075ZM13.0343 12.0432L13.0748 12.5415H13.0748L13.0343 12.0432ZM12.2165 8.25074L12.257 8.7491L12.6899 8.71394L12.7157 8.28045L12.2165 8.25074ZM7.00605 8.67392L7.04652 9.17228L7.04653 9.17228L7.00605 8.67392ZM1.28323 13.8197L1.7745 13.9127L1.7745 13.9127L1.28323 13.8197ZM1.01138 33.5602L1.50503 33.4808H1.50503L1.01138 33.5602ZM1.26074 35.1095L1.75439 35.03L1.75439 35.03L1.26074 35.1095ZM7.66346 41.0282L7.62299 41.5265H7.623L7.66346 41.0282ZM12.6438 41.4325L12.6842 40.9342H12.6842L12.6438 41.4325ZM36.2521 41.4325L36.2116 40.9342H36.2116L36.2521 41.4325ZM41.2324 41.0282L41.2728 41.5265H41.2728L41.2324 41.0282ZM47.6352 35.1095L48.1288 35.1889L48.1288 35.1889L47.6352 35.1095ZM47.8844 33.5602L47.3908 33.4808L47.3908 33.4808L47.8844 33.5602ZM47.6126 13.8197L47.1213 13.9127L47.1214 13.9127L47.6126 13.8197ZM41.8898 8.67392L41.8493 9.17228V9.17228L41.8898 8.67392ZM36.6793 8.25074L36.1802 8.28043L36.206 8.71394L36.6388 8.7491L36.6793 8.25074ZM20.8995 3.4233C17.9435 3.4233 15.5471 5.81967 15.5471 8.77574H16.5471C16.5471 6.37196 18.4958 4.4233 20.8995 4.4233V3.4233ZM27.9962 3.4233H20.8995V4.4233H27.9962V3.4233ZM33.3488 8.77574C33.3488 5.81966 30.9523 3.4233 27.9962 3.4233V4.4233C30.4001 4.4233 32.3488 6.37197 32.3488 8.77574H33.3488ZM35.9021 11.5448C34.4596 11.4277 33.3488 10.2229 33.3488 8.77574H32.3488C32.3488 10.7438 33.8595 12.3822 35.8211 12.5415L35.9021 11.5448ZM41.619 12.0091L35.9021 11.5448L35.8211 12.5415L41.538 13.0058L41.619 12.0091ZM44.3249 14.4422C44.0736 13.1145 42.9659 12.1185 41.619 12.0091L41.5381 13.0058C42.4362 13.0788 43.1748 13.7429 43.3424 14.6282L44.3249 14.4422ZM44.5809 33.0287C45.5729 26.865 45.4862 20.5759 44.3249 14.4422L43.3424 14.6282C44.4821 20.6481 44.5672 26.8205 43.5936 32.8698L44.5809 33.0287ZM44.3314 34.5779L44.5809 33.0287L43.5936 32.8697L43.3441 34.4189L44.3314 34.5779ZM40.9616 37.6929C42.6682 37.5543 44.0594 36.2683 44.3314 34.5779L43.3441 34.419C43.1453 35.6547 42.1283 36.5949 40.8806 36.6962L40.9616 37.6929ZM35.9813 38.0973L40.9615 37.6929L40.8806 36.6962L35.9004 37.1006L35.9813 38.0973ZM12.9146 38.0973C20.5909 38.7208 28.3049 38.7208 35.9813 38.0973L35.9003 37.1006C28.2778 37.7197 20.618 37.7197 12.9956 37.1006L12.9146 38.0973ZM7.93433 37.6929L12.9146 38.0973L12.9956 37.1006L8.01526 36.6962L7.93433 37.6929ZM4.56438 34.5779C4.83649 36.2683 6.22776 37.5543 7.93431 37.6929L8.01528 36.6962C6.76767 36.5949 5.75059 35.6547 5.55167 34.419L4.56438 34.5779ZM4.31502 33.0287L4.56438 34.5779L5.55167 34.419L5.30231 32.8698L4.31502 33.0287ZM4.57096 14.4422C3.40957 20.5759 3.32297 26.8651 4.31502 33.0287L5.30231 32.8698C4.32867 26.8205 4.41366 20.6481 5.5535 14.6282L4.57096 14.4422ZM7.27692 12.0091C5.93004 12.1185 4.82235 13.1145 4.57096 14.4422L5.5535 14.6282C5.72113 13.7429 6.45975 13.0787 7.35786 13.0058L7.27692 12.0091ZM12.9938 11.5448L7.27691 12.0091L7.35786 13.0058L13.0748 12.5415L12.9938 11.5448ZM15.5471 8.77574C15.5471 10.2229 14.4362 11.4276 12.9938 11.5448L13.0748 12.5415C15.0363 12.3822 16.5471 10.7438 16.5471 8.77574H15.5471ZM12.7157 8.28045C12.9715 3.98336 16.5379 0.577148 20.8995 0.577148V-0.422852C16.0055 -0.422852 12.0045 3.39884 11.7174 8.22103L12.7157 8.28045ZM7.04653 9.17228L12.257 8.7491L12.1761 7.75238L6.96558 8.17556L7.04653 9.17228ZM1.7745 13.9127C2.26429 11.3259 4.42239 9.38539 7.04652 9.17228L6.96558 8.17556C3.89268 8.42511 1.36551 10.6975 0.791959 13.7266L1.7745 13.9127ZM1.50503 33.4808C0.460569 26.9918 0.55174 20.3704 1.7745 13.9127L0.791959 13.7266C-0.452357 20.2982 -0.545135 27.0363 0.517738 33.6397L1.50503 33.4808ZM1.75439 35.03L1.50503 33.4808L0.517738 33.6397L0.767097 35.1889L1.75439 35.03ZM7.70394 40.5298C4.69105 40.2851 2.23475 38.0145 1.75439 35.03L0.767096 35.1889C1.32063 38.628 4.1511 41.2446 7.62299 41.5265L7.70394 40.5298ZM12.6842 40.9342L7.70393 40.5298L7.623 41.5265L12.6033 41.9309L12.6842 40.9342ZM36.2116 40.9342C28.3822 41.5699 20.5138 41.5699 12.6842 40.9342L12.6033 41.9309C20.4868 42.571 28.4092 42.571 36.2926 41.9309L36.2116 40.9342ZM41.1919 40.5298L36.2116 40.9342L36.2926 41.9309L41.2728 41.5265L41.1919 40.5298ZM47.1415 35.03C46.6612 38.0145 44.2047 40.2851 41.1919 40.5298L41.2728 41.5265C44.7446 41.2446 47.5753 38.628 48.1288 35.1889L47.1415 35.03ZM47.3908 33.4808L47.1415 35.03L48.1288 35.1889L48.3781 33.6396L47.3908 33.4808ZM47.1214 13.9127C48.3442 20.3704 48.4354 26.9918 47.3908 33.4808L48.3781 33.6397C49.4411 27.0363 49.3483 20.2982 48.1039 13.7266L47.1214 13.9127ZM41.8493 9.17228C44.4734 9.38539 46.6317 11.3259 47.1213 13.9127L48.1039 13.7267C47.5305 10.6974 45.0031 8.42511 41.9303 8.17556L41.8493 9.17228ZM36.6388 8.7491L41.8493 9.17228L41.9303 8.17556L36.7198 7.75238L36.6388 8.7491ZM27.9962 0.577148C32.358 0.577148 35.9245 3.98337 36.1802 8.28043L37.1784 8.22104C36.8915 3.39882 32.8903 -0.422852 27.9962 -0.422852V0.577148ZM20.8995 0.577148H27.9962V-0.422852H20.8995V0.577148ZM15.3359 22.5133C15.3359 17.479 19.417 13.3979 24.4514 13.3979V12.3979C18.8648 12.3979 14.3359 16.9267 14.3359 22.5133H15.3359ZM24.4514 31.6287C19.417 31.6287 15.3359 27.5477 15.3359 22.5133H14.3359C14.3359 28.1 18.8648 32.6287 24.4514 32.6287V31.6287ZM33.5668 22.5133C33.5668 27.5477 29.4855 31.6287 24.4514 31.6287V32.6287C30.0378 32.6287 34.5668 28.1 34.5668 22.5133H33.5668ZM24.4514 13.3979C29.4855 13.3979 33.5668 17.479 33.5668 22.5133H34.5668C34.5668 16.9267 30.0378 12.3979 24.4514 12.3979V13.3979ZM24.4514 16.2441C20.9888 16.2441 18.1821 19.051 18.1821 22.5133H19.1821C19.1821 19.6033 21.5411 17.2441 24.4514 17.2441V16.2441ZM30.7206 22.5133C30.7206 19.051 27.9137 16.2441 24.4514 16.2441V17.2441C27.3614 17.2441 29.7206 19.6033 29.7206 22.5133H30.7206ZM24.4514 28.7826C27.9137 28.7826 30.7206 25.9756 30.7206 22.5133H29.7206C29.7206 25.4233 27.3614 27.7826 24.4514 27.7826V28.7826ZM18.1821 22.5133C18.1821 25.9756 20.9888 28.7826 24.4514 28.7826V27.7826C21.5411 27.7826 19.1821 25.4234 19.1821 22.5133H18.1821Z" fill="#F5F5F5" mask="url(#path-1-inside-1_8066_2187)"/>
</svg>
