<svg width="54" height="38" viewBox="0 0 54 38" fill="none" xmlns="http://www.w3.org/2000/svg">
<path d="M32.595 36.6413L32.595 36.6413C26.0525 37.3367 19.459 37.3881 12.9068 36.7957L8.52081 36.3992C5.01345 36.082 2.17644 33.3716 1.66635 29.8432C0.626841 22.6527 0.626841 15.3473 1.66635 8.15682L1.41947 8.12113L1.66635 8.15682C2.17644 4.62823 5.01345 1.91788 8.5208 1.60075L12.9068 1.20416C19.459 0.61169 26.0525 0.66341 32.595 1.35857L34.2801 1.53761C37.6187 1.89237 40.3228 4.40619 40.9738 7.7096L41.0393 8.04167L41.3374 7.88148L49.7859 3.34225C50.3274 3.05134 50.9766 3.05433 51.5154 3.35024C52.0545 3.64626 52.412 4.19676 52.4659 4.81719L52.5349 5.61313C53.307 14.5206 53.307 23.4794 52.5349 32.3867L52.4659 33.1828C52.412 33.8032 52.0545 34.3536 51.5155 34.6498C50.9766 34.9455 50.3274 34.9485 49.7859 34.6577L41.3374 30.1186L41.0393 29.9584L40.9738 30.2905C40.3228 33.5938 37.6187 36.1077 34.2801 36.4624L32.595 36.6413ZM37.421 29.357L37.1736 29.3212L37.421 29.357C38.4138 22.4889 38.4138 15.5111 37.421 8.64295L37.1736 8.67871L37.421 8.64293C37.1581 6.82529 35.7094 5.41606 33.8981 5.2236L32.2131 5.04456C25.9059 4.37435 19.549 4.3245 13.2322 4.89569L8.8462 5.29228C7.022 5.45721 5.55118 6.86595 5.28697 8.69375C4.29894 15.5282 4.29894 22.4718 5.28697 29.3062C5.55119 31.134 7.02201 32.5427 8.84617 32.7078L8.86871 32.4588L8.8462 32.7078L13.2322 33.1043C19.5491 33.6755 25.9059 33.6255 32.2131 32.9553L33.8981 32.7764C35.7094 32.5838 37.1581 31.1747 37.421 29.357ZM41.647 11.9105L41.5015 11.9887L41.5164 12.1532C41.9276 16.7082 41.9276 21.2916 41.5164 25.8469L41.5015 26.0114L41.647 26.0896L48.7094 29.8838L49.0498 30.0667L49.0771 29.6813C49.5807 22.5694 49.5807 15.4303 49.0771 8.31855L49.0498 7.93309L48.7094 8.11598L41.647 11.9105Z" fill="#9F9F9F" stroke="white" stroke-width="0.5"/>
</svg>
