<svg width="22" height="22" viewBox="0 0 22 22" fill="none" xmlns="http://www.w3.org/2000/svg">
<path d="M9.33301 11.834C9.69088 12.3124 10.1475 12.7083 10.6718 12.9947C11.1961 13.2812 11.7759 13.4516 12.3719 13.4942C12.9678 13.5369 13.566 13.4509 14.1258 13.2421C14.6856 13.0333 15.1939 12.7065 15.6163 12.284L18.1163 9.78396C18.8753 8.99811 19.2953 7.9456 19.2858 6.85312C19.2763 5.76063 18.8381 4.71558 18.0656 3.94304C17.2931 3.17051 16.248 2.73231 15.1555 2.72281C14.063 2.71332 13.0105 3.1333 12.2247 3.89229L10.7913 5.31729" stroke="currentColor" stroke-width="1.5" stroke-linecap="round" stroke-linejoin="round"/>
<path d="M12.6668 10.167C12.309 9.68858 11.8524 9.2927 11.328 9.00623C10.8037 8.71977 10.2239 8.54942 9.62796 8.50674C9.03201 8.46406 8.43384 8.55004 7.87405 8.75887C7.31425 8.96769 6.80591 9.29446 6.3835 9.71702L3.8835 12.217C3.12451 13.0029 2.70453 14.0554 2.71402 15.1479C2.72352 16.2403 3.16172 17.2854 3.93426 18.0579C4.70679 18.8305 5.75184 19.2687 6.84433 19.2782C7.93682 19.2877 8.98932 18.8677 9.77517 18.1087L11.2002 16.6837" stroke="currentColor" stroke-width="1.5" stroke-linecap="round" stroke-linejoin="round"/>
</svg>
