<svg viewBox="0 0 16 16" class="loop" style="width: 16px; height: 16px; display: block; fill: rgba(55, 53, 47, 0.85); flex-shrink: 0; backface-visibility: hidden;"><path d="M5.80371 3.12305C5.81006 3.50391 6.05762 3.74512 6.47656 3.74512H11.3643C11.9546 3.74512 12.2783 4.0498 12.2783 4.66553V11.2925L11.377 10.3149L10.8628 9.80078C10.5962 9.54688 10.2344 9.52783 9.96777 9.78809C9.71387 10.0483 9.72021 10.4229 9.98047 10.6831L12.145 12.8413C12.6211 13.311 13.167 13.311 13.6431 12.8413L15.8076 10.6831C16.0679 10.4229 16.0742 10.0483 15.8203 9.78809C15.5537 9.52783 15.1919 9.54688 14.9253 9.80078L14.4111 10.3149L13.5161 11.2861V4.56396C13.5161 3.20557 12.8052 2.50098 11.4341 2.50098H6.47656C6.05762 2.50098 5.79736 2.74219 5.80371 3.12305ZM0.186035 7.05859C0.446289 7.3252 0.808105 7.30615 1.07471 7.0459L1.59521 6.53809L2.48389 5.56689V12.2891C2.48389 13.6475 3.19482 14.3521 4.56592 14.3521H9.52344C9.94238 14.3521 10.2026 14.1108 10.1963 13.73C10.1899 13.3428 9.94238 13.1079 9.52344 13.1079H4.64209C4.05176 13.1079 3.72803 12.7969 3.72803 12.1812V5.5542L4.62305 6.53809L5.14355 7.0459C5.40381 7.30615 5.77197 7.3252 6.03223 7.05859C6.29248 6.79834 6.28613 6.43018 6.01953 6.16992L3.85498 4.01172C3.37891 3.53564 2.83936 3.53564 2.36328 4.01172L0.19873 6.16992C-0.0678711 6.43018 -0.0742188 6.79834 0.186035 7.05859Z"></path></svg>