<svg viewBox="0 0 16 16" style="width: 16px; height: 16px; display: block; fill: rgba(55, 53, 47, 0.85); flex-shrink: 0;"><path d="M8.215 15.126c3.862 0 7.061-3.192 7.061-7.062 0-3.862-3.199-7.061-7.068-7.061-3.862 0-7.055 3.2-7.055 7.061 0 3.87 3.2 7.062 7.062 7.062zm0-1.388a5.654 5.654 0 01-5.667-5.674 5.642 5.642 0 015.66-5.667 5.66 5.66 0 015.68 5.667 5.66 5.66 0 01-5.673 5.674zm0-9.174c-.342 0-.602.247-.602.588v3.234l.062 1.401-.622-.766-.766-.8a.557.557 0 00-.41-.177.54.54 0 00-.56.547c0 .164.054.3.163.41l2.256 2.283c.15.157.294.226.479.226.191 0 .335-.075.485-.226l2.256-2.283a.557.557 0 00.164-.41.539.539 0 00-.56-.547.523.523 0 00-.41.178l-.766.793-.622.779.054-1.408V5.152c0-.341-.253-.588-.601-.588z"></path></svg>