<svg width="22" height="22" viewBox="0 0 22 22" fill="none" xmlns="http://www.w3.org/2000/svg">
<path d="M9.16699 11.917C9.56066 12.4432 10.0629 12.8787 10.6397 13.1938C11.2164 13.5089 11.8542 13.6963 12.5098 13.7433C13.1653 13.7902 13.8233 13.6956 14.4391 13.4659C15.0548 13.2362 15.614 12.8768 16.0787 12.412L18.8287 9.66196C19.6636 8.79754 20.1255 7.63977 20.1151 6.43804C20.1046 5.2363 19.6226 4.08675 18.7728 3.23696C17.923 2.38717 16.7735 1.90515 15.5717 1.8947C14.37 1.88426 13.2123 2.34624 12.3478 3.18113L10.7712 4.74863" stroke="#fff" stroke-width="1.5" stroke-linecap="round" stroke-linejoin="round"/>
<path d="M12.833 10.0841C12.4394 9.55783 11.9371 9.12236 11.3604 8.80725C10.7836 8.49214 10.1458 8.30475 9.49027 8.2578C8.83472 8.21085 8.17674 8.30544 7.56096 8.53514C6.94518 8.76485 6.38601 9.1243 5.92136 9.58911L3.17136 12.3391C2.33647 13.2035 1.8745 14.3613 1.88494 15.563C1.89538 16.7648 2.37741 17.9143 3.22719 18.7641C4.07698 19.6139 5.22654 20.0959 6.42827 20.1064C7.63001 20.1168 8.78777 19.6548 9.65219 18.8199L11.2197 17.2524" stroke="#fff" stroke-width="1.5" stroke-linecap="round" stroke-linejoin="round"/>
</svg>
