<svg width="22" height="22" viewBox="0 0 22 22" fill="none" xmlns="http://www.w3.org/2000/svg">
<rect x="10" y="7" width="11" height="1.3" rx="0.65" fill="#B9B9B9"/>
<rect x="10" y="10.5" width="11" height="1.3" rx="0.65" fill="#B9B9B9"/>
<rect x="10" y="14" width="6" height="1.3" rx="0.65" fill="#B9B9B9"/>
<path d="M2.63158 13.7709H4.10526V9.738C4.10526 9.54047 4.11053 9.33379 4.12105 9.11797L3.25263 9.86968C3.17544 9.93187 3.09825 9.97028 3.02105 9.98491C2.94737 9.99588 2.87719 9.99588 2.81053 9.98491C2.74386 9.97028 2.68421 9.9465 2.63158 9.91358C2.57895 9.877 2.54035 9.84042 2.51579 9.80384L2 9.09054L4.38947 7H5.73684V13.7709H7V15H2.63158V13.7709Z" fill="white"/>
</svg>
