<svg viewBox="0 0 16 16" class="caption" style="width: 16px; height: 16px; display: block; fill: currentColor; flex-shrink: 0; backface-visibility: hidden;"><path d="M2.87 8.975h6.74c1.119 0 1.775-.65 1.775-1.904V2.444c0-1.254-.656-1.904-1.922-1.904H2.871C1.605.54.949 1.19.949 2.444V7.07c0 1.254.656 1.904 1.922 1.904zm.07-1.148c-.544 0-.843-.282-.843-.85v-4.44c0-.568.299-.849.844-.849h6.451c.54 0 .844.281.844.85v4.44c0 .567-.305.849-.697.849H2.94zm-1.39 4.386h12.893a.604.604 0 00.608-.601.604.604 0 00-.608-.602H1.55a.598.598 0 00-.601.602c0 .335.266.601.601.601zm8.49 3.247H1.55a.598.598 0 01-.601-.601c0-.335.266-.602.601-.602h8.49c.336 0 .609.267.609.602a.604.604 0 01-.608.601z"></path></svg>