<svg width="22" height="22" viewBox="0 0 22 22" fill="none" xmlns="http://www.w3.org/2000/svg">
<path d="M16.8984 6H8.22656C6.99687 6 6 6.99687 6 8.22656V16.8984C6 18.1281 6.99687 19.125 8.22656 19.125H16.8984C18.1281 19.125 19.125 18.1281 19.125 16.8984V8.22656C19.125 6.99687 18.1281 6 16.8984 6Z" stroke="currentColor" stroke-width="1.4" stroke-linejoin="round"/>
<path d="M15.9805 6L16 5.0625C15.9984 4.48285 15.7674 3.9274 15.3575 3.51753C14.9476 3.10765 14.3922 2.87665 13.8125 2.875H5.375C4.71256 2.87696 4.07781 3.14098 3.6094 3.6094C3.14098 4.07781 2.87696 4.71256 2.875 5.375V13.8125C2.87665 14.3922 3.10765 14.9476 3.51753 15.3575C3.9274 15.7674 4.48285 15.9984 5.0625 16H6" stroke="currentColor" stroke-width="1.4" stroke-linecap="round" stroke-linejoin="round"/>
</svg>
