<svg width="22" height="22" viewBox="0 0 22 22" fill="currentColor" xmlns="http://www.w3.org/2000/svg">
<path d="M18.7344 4.125H3.26562C2.60116 4.125 2.0625 4.66366 2.0625 5.32812V16.6719C2.0625 17.3363 2.60116 17.875 3.26562 17.875H18.7344C19.3988 17.875 19.9375 17.3363 19.9375 16.6719V5.32812C19.9375 4.66366 19.3988 4.125 18.7344 4.125Z" stroke="#fff" stroke-width="1.5" stroke-linejoin="round"/>
<path d="M18.7344 14.4375H17.7031C17.0387 14.4375 16.5 14.9762 16.5 15.6406V16.6719C16.5 17.3363 17.0387 17.875 17.7031 17.875H18.7344C19.3988 17.875 19.9375 17.3363 19.9375 16.6719V15.6406C19.9375 14.9762 19.3988 14.4375 18.7344 14.4375Z" stroke="#fff" stroke-width="1.5" stroke-linejoin="round"/>
<path d="M18.7344 11H17.7031C17.0387 11 16.5 11.5387 16.5 12.2031V13.2344C16.5 13.8988 17.0387 14.4375 17.7031 14.4375H18.7344C19.3988 14.4375 19.9375 13.8988 19.9375 13.2344V12.2031C19.9375 11.5387 19.3988 11 18.7344 11Z" stroke="#fff" stroke-width="1.5" stroke-linejoin="round"/>
<path d="M18.7344 7.5625H17.7031C17.0387 7.5625 16.5 8.10116 16.5 8.76562V9.79688C16.5 10.4613 17.0387 11 17.7031 11H18.7344C19.3988 11 19.9375 10.4613 19.9375 9.79688V8.76562C19.9375 8.10116 19.3988 7.5625 18.7344 7.5625Z" stroke="#fff" stroke-width="1.5" stroke-linejoin="round"/>
<path d="M18.7344 4.125H17.7031C17.0387 4.125 16.5 4.66366 16.5 5.32812V6.35938C16.5 7.02384 17.0387 7.5625 17.7031 7.5625H18.7344C19.3988 7.5625 19.9375 7.02384 19.9375 6.35938V5.32812C19.9375 4.66366 19.3988 4.125 18.7344 4.125Z" stroke="#fff" stroke-width="1.5" stroke-linejoin="round"/>
<path d="M4.29688 14.4375H3.26562C2.60116 14.4375 2.0625 14.9762 2.0625 15.6406V16.6719C2.0625 17.3363 2.60116 17.875 3.26562 17.875H4.29688C4.96134 17.875 5.5 17.3363 5.5 16.6719V15.6406C5.5 14.9762 4.96134 14.4375 4.29688 14.4375Z" stroke="#fff" stroke-width="1.5" stroke-linejoin="round"/>
<path d="M4.29688 11H3.26562C2.60116 11 2.0625 11.5387 2.0625 12.2031V13.2344C2.0625 13.8988 2.60116 14.4375 3.26562 14.4375H4.29688C4.96134 14.4375 5.5 13.8988 5.5 13.2344V12.2031C5.5 11.5387 4.96134 11 4.29688 11Z" stroke="#fff" stroke-width="1.5" stroke-linejoin="round"/>
<path d="M4.29688 7.5625H3.26562C2.60116 7.5625 2.0625 8.10116 2.0625 8.76562V9.79688C2.0625 10.4613 2.60116 11 3.26562 11H4.29688C4.96134 11 5.5 10.4613 5.5 9.79688V8.76562C5.5 8.10116 4.96134 7.5625 4.29688 7.5625Z" stroke="#fff" stroke-width="1.5" stroke-linejoin="round"/>
<path d="M4.29688 4.125H3.26562C2.60116 4.125 2.0625 4.66366 2.0625 5.32812V6.35938C2.0625 7.02384 2.60116 7.5625 3.26562 7.5625H4.29688C4.96134 7.5625 5.5 7.02384 5.5 6.35938V5.32812C5.5 4.66366 4.96134 4.125 4.29688 4.125Z" stroke="#fff" stroke-width="1.5" stroke-linejoin="round"/>
<path d="M15.2969 4.125H6.70312C6.03866 4.125 5.5 4.66366 5.5 5.32812V9.79688C5.5 10.4613 6.03866 11 6.70312 11H15.2969C15.9613 11 16.5 10.4613 16.5 9.79688V5.32812C16.5 4.66366 15.9613 4.125 15.2969 4.125Z" stroke="#fff" stroke-width="1.5" stroke-linejoin="round"/>
<path d="M15.2969 11H6.70312C6.03866 11 5.5 11.5387 5.5 12.2031V16.6719C5.5 17.3363 6.03866 17.875 6.70312 17.875H15.2969C15.9613 17.875 16.5 17.3363 16.5 16.6719V12.2031C16.5 11.5387 15.9613 11 15.2969 11Z" stroke="#fff" stroke-width="1.5" stroke-linejoin="round"/>
</svg>
